<svg viewBox="0 0 36 36" xmlns="http://www.w3.org/2000/svg" xmlns:xlink="http://www.w3.org/1999/xlink" width="36.000000" height="36.000000" fill="none" customFrame="#000000">
	<rect id="variant=58" width="36.000000" height="36.000000" x="0.000000" y="0.000000" />
	<path id="Vector" d="M36 18C36 8.05887 27.9411 0 18 0C8.05887 0 0 8.05887 0 18C0 27.9411 8.05887 36 18 36C27.9411 36 36 27.9411 36 18Z" fill="rgb(7,117,181)" fill-opacity="0.899999976" fill-rule="evenodd" transform="matrix(-1,0,0,1,36,0)" />
	<path id="Vector" d="M11.2107 17.4358L15.8773 12.2553C16.1393 11.9789 16.7011 11.8837 17.0074 12.1897C17.3138 12.4956 17.3118 13.0763 17.0035 13.38L13.5846 17.1802L24.2222 17.1802C24.6518 17.1802 25 17.5464 25 17.9981C25 18.4499 24.6518 18.8161 24.2222 18.8161L13.5846 18.8161L17.0035 22.6163C17.3119 22.92 17.3323 23.5225 17.0074 23.8066C16.7072 24.0691 16.1498 24.0805 15.8773 23.741L11.2107 18.5605C11.0124 18.3513 10.8576 17.801 11.2107 17.4358Z" fill="rgb(255,255,255)" fill-rule="evenodd" />
</svg>
