<svg viewBox="0 0 37 36" xmlns="http://www.w3.org/2000/svg" xmlns:xlink="http://www.w3.org/1999/xlink" width="37.000000" height="36.000000" fill="none" customFrame="#000000">
	<rect id="variant=8" width="37.000000" height="36.000000" x="0.000000" y="0.000000" />
	<path id="Vector" d="M36.5 18C36.5 8.05887 28.4411 0 18.5 0C8.55887 0 0.5 8.05887 0.5 18C0.5 27.9411 8.55887 36 18.5 36C28.4411 36 36.5 27.9411 36.5 18Z" fill="rgb(7,117,181)" fill-rule="evenodd" />
	<path id="Vector" d="M22.9008 12.8003L15.9378 12.4369C15.5572 12.4267 15.0927 12.7567 15.0924 13.1897C15.0921 13.6226 15.504 14.0318 15.9368 14.0286L21.0415 14.2981L13.5195 21.8201C13.2158 22.1238 13.2285 22.629 13.548 22.9485C13.8674 23.2679 14.3726 23.2806 14.6763 22.9769L22.1983 15.4549L22.4679 20.5596C22.4646 20.9924 22.8762 21.4329 23.3068 21.404C23.7047 21.3774 24.1069 20.9913 24.0595 20.5586L23.6961 13.5956C23.6884 13.3075 23.4087 12.8089 22.9008 12.8003Z" fill="rgb(255,255,255)" fill-rule="evenodd" />
</svg>
