<svg viewBox="0 0 36 36" xmlns="http://www.w3.org/2000/svg" xmlns:xlink="http://www.w3.org/1999/xlink" width="36.000000" height="36.000000" fill="none" customFrame="#000000">
	<rect id="variant=60" width="36.000000" height="36.000000" x="0.000000" y="0.000000" />
	<path id="Vector" d="M36 18C36 8.05887 27.9411 0 18 0C8.05887 0 0 8.05887 0 18C0 27.9411 8.05887 36 18 36C27.9411 36 36 27.9411 36 18Z" fill="rgb(7,117,181)" fill-opacity="0.899999976" fill-rule="evenodd" />
	<path id="Vector" d="M24.7893 17.4358L20.1227 12.2553C19.8607 11.9789 19.2989 11.8837 18.9926 12.1897C18.6862 12.4956 18.6882 13.0763 18.9965 13.38L22.4154 17.1802L11.7778 17.1802C11.3482 17.1802 11 17.5464 11 17.9981C11 18.4499 11.3482 18.8161 11.7778 18.8161L22.4154 18.8161L18.9965 22.6163C18.6881 22.92 18.6677 23.5225 18.9926 23.8066C19.2928 24.0691 19.8502 24.0805 20.1227 23.741L24.7893 18.5605C24.9876 18.3513 25.1424 17.801 24.7893 17.4358Z" fill="rgb(255,255,255)" fill-rule="evenodd" />
</svg>
