<svg viewBox="0 0 96 28" xmlns="http://www.w3.org/2000/svg" xmlns:xlink="http://www.w3.org/1999/xlink" width="96.000000" height="28.000000" fill="none">
	<rect id="logo-volvo.svg" width="96.000000" height="28.000000" x="0.000000" y="0.000000" />
	<path id="Vector" d="M31.2567 12.9877C35.636 12.9877 39.1935 10.2188 39.1935 6.80341C39.1935 3.38798 35.643 0.619141 31.2637 0.619141C26.8839 0.619141 23.3329 3.38798 23.3329 6.80341C23.3329 10.2188 26.8769 12.9877 31.2567 12.9877ZM31.2632 11.1275C29.6433 11.1275 28.3297 9.19156 28.3297 6.80395C28.3297 4.41635 29.6427 2.48038 31.2632 2.48038C32.8831 2.48038 34.1961 4.41635 34.1961 6.80395C34.1961 9.19156 32.8831 11.1275 31.2632 11.1275ZM40.2673 10.9678L40.2673 12.516L56.2451 12.516L56.2451 7.36064L54.7859 7.36064C54.6703 9.07134 53.7099 10.8129 51.0983 10.9678L48.1799 10.9678L48.1799 2.52478L51.0983 2.52478L51.0983 0.977089L40.2673 0.977089L40.2673 2.52478L43.1863 2.52478L43.1863 10.9678L40.2673 10.9678ZM2.08957 0.976548L2.08957 2.52478L4.70112 2.52478L10.0822 12.516L16.2975 12.516L21.2937 2.52478L24.1359 2.52478L24.1359 0.976548L16.4926 0.976548L16.4926 2.52478L18.7204 2.52478L14.8028 10.3033L10.6546 2.52478L13.6891 2.52478L13.6891 0.976548L2.08957 0.976548ZM53.6637 0.976548L53.6637 2.52478L56.2752 2.52478L61.6563 12.516L67.8721 12.516L72.8684 2.52478L75.7105 2.52478L75.7105 0.976548L68.0672 0.976548L68.0672 2.52478L70.2944 2.52478L66.3768 10.3033L62.2298 2.52478L65.2632 2.52478L65.2632 0.976548L53.6637 0.976548ZM8.67836 22.5235L12.3138 22.5235C14.3019 22.5235 17.7099 22.4092 17.7099 18.8606C17.7099 15.5415 13.6203 15.5415 12.2004 15.5415L0.726562 15.5415L0.726562 17.0297L3.68047 17.0297L3.68047 25.614L0.726562 25.614L0.726562 27.1021L11.6323 27.1021L11.6323 25.614L8.6789 25.614L8.67836 22.5235ZM8.67836 17.0297L9.92797 17.0297C12.1434 17.0297 12.654 18.1171 12.654 19.147C12.654 20.177 11.4614 21.0348 9.92797 21.0348L8.67836 21.0348L8.67836 17.0297ZM26.4002 17.0297L29.9786 17.0297C31.1718 17.0297 32.989 17.7163 32.989 20.1191L34.8067 20.1191L34.8067 15.5415L18.4484 15.5415L18.4484 17.0297L21.4018 17.0297L21.4018 25.614L18.4484 25.614L18.4484 27.1021L34.8067 27.1021L34.8067 22.1227L32.989 22.1227C32.989 24.9279 31.1718 25.614 29.9786 25.614L26.4002 25.614L26.4002 21.6078L30.263 21.6078L30.263 20.1196L26.4002 20.1196L26.4002 17.0297ZM37.7601 15.5415L37.7601 17.0297L40.3162 17.0297L40.3162 25.614L37.7601 25.614L37.7601 27.1021L45.3716 27.1021L45.3716 25.614L42.8719 25.614L42.8719 20.2344L50.7108 27.1021L55.1406 27.1021L55.1406 17.0297L57.6968 17.0297L57.6968 15.5415L50.0282 15.5415L50.0282 17.0297L52.5844 17.0297L52.5844 21.4935L45.8258 15.5415L37.7601 15.5415ZM61.8433 27.1021L61.8433 25.614L64.3425 25.614L64.3425 17.0297L63.3767 17.0297C62.1841 17.0297 60.253 17.7163 60.253 20.1191L58.5492 20.1191L58.5492 15.5415L75.1348 15.5415L75.1348 20.1191L73.3736 20.1191C73.3736 17.7158 71.5 17.0297 70.3063 17.0297L69.3415 17.0297L69.3415 25.614L71.8396 25.614L71.8396 27.1021L61.8433 27.1021ZM80.9852 21.6657L83.0302 18.0602L85.1317 21.6657L80.9852 21.6657ZM80.1327 23.1527L85.8696 23.1527L86.7221 24.4697C87.0053 25.0421 86.8355 25.614 86.154 25.614L84.1089 25.614L84.1089 27.1021L95.1844 27.1021L95.1844 25.614L93.822 25.614C93.3108 25.6709 92.5149 25.2701 92.1171 24.584L86.9483 15.5421L81.4393 15.5421L76.5538 24.1264C76.1001 24.8131 75.5315 25.6145 74.3953 25.6145L73.2027 25.6145L73.2027 27.1027L80.9846 27.1027L80.9846 25.6145L79.792 25.6145C79.2808 25.6145 79.1094 25.2138 79.2808 24.6988L80.1327 23.1527ZM82.9453 12.9877C87.3246 12.9877 90.8815 10.2188 90.8815 6.80341C90.8815 3.38798 87.3315 0.619141 82.9517 0.619141C78.5719 0.619141 75.0209 3.38798 75.0209 6.80341C75.0209 10.2188 78.5644 12.9877 82.9453 12.9877ZM82.9512 11.1275C81.3313 11.1275 80.0183 9.19156 80.0183 6.80395C80.0183 4.41635 81.3313 2.48038 82.9512 2.48038C84.5711 2.48038 85.8841 4.41635 85.8841 6.80395C85.8841 9.19156 84.5711 11.1275 82.9512 11.1275Z" fill="rgb(255,255,255)" fill-rule="evenodd" />
</svg>
