<svg viewBox="0 0 78 78" xmlns="http://www.w3.org/2000/svg" xmlns:xlink="http://www.w3.org/1999/xlink" width="78.000000" height="78.000000" fill="none">
	<defs>
		<filter id="pixso_custom_mask_type_outline">
			<feColorMatrix type="matrix" values="0 0 0 0 1 0 0 0 0 1 0 0 0 0 1 0 0 0 1 0 " />
		</filter>
	</defs>
	<mask id="mask_0" width="76.802200" height="76.802200" x="0.253906" y="0.834961" maskUnits="userSpaceOnUse">
		<g filter="url(#pixso_custom_mask_type_outline)">
			<g id="a" />
		</g>
	</mask>
	<rect id="logo-man.svg" width="78.000000" height="78.000000" x="0.000000" y="0.000000" />
	<g id="Clip path group" mask="url(#mask_0)">
		<g id="Group">
			<path id="Vector" d="M72.0565 54.9757C72.1716 53.8473 72.2302 52.4161 72.2302 51.2574C72.2302 32.7163 57.199 17.6855 38.6578 17.6855C20.1167 17.6855 5.08586 32.7163 5.08586 51.2574C5.08586 52.5205 5.15559 53.7509 5.29146 54.9781L1.57917 54.9733C1.45081 53.7389 1.38658 52.4986 1.38672 51.2574C1.38672 30.6735 18.0743 13.9863 38.6582 13.9863C59.243 13.9863 75.9301 30.6735 75.9301 51.2574C75.9301 52.5117 75.868 53.7509 75.7473 54.9733L72.0565 54.9757Z" fill="rgb(255,255,255)" fill-rule="evenodd" />
			<path id="Vector" d="M17.0741 54.1348L20.9984 50.0799L20.9984 54.9855L26.4259 54.9855L26.4259 43.998L20.9984 43.998L17.0741 48.7068L13.1506 43.998L7.72266 43.998L7.72266 54.9855L13.1506 54.9855L13.1506 50.0799L17.0741 54.1348ZM50.6883 43.998L50.6883 54.9855L56.1171 54.9855L56.1171 49.23L63.3755 54.9855L69.1302 54.9855L69.1302 43.998L63.7022 43.998L63.7022 49.8842L56.1171 43.998L50.6883 43.998ZM28.4536 54.9855L35.3853 43.998L41.7289 43.998L48.7264 54.9855L42.9717 54.9855L38.59 48.0534L36.432 51.584L40.7476 51.584L42.3178 54.0041L34.8626 54.0041L34.2083 54.9855L28.4536 54.9855Z" fill="rgb(255,255,255)" fill-rule="evenodd" />
		</g>
	</g>
</svg>
