<svg viewBox="0 0 114 27" xmlns="http://www.w3.org/2000/svg" xmlns:xlink="http://www.w3.org/1999/xlink" width="114.000000" height="27.000000" fill="none">
	<rect id="logo-quick.svg" width="114.000000" height="27.000000" x="0.000000" y="0.000000" />
	<path id="Vector" d="M5.266 24.249L0.414062 24.249L0.414062 26.4223L5.266 26.4223L5.266 24.249Z" fill="rgb(255,255,255)" fill-rule="nonzero" />
	<path id="Vector" d="M3.96716 14.1707C4.17403 11.0526 5.75372 8.59588 7.69073 8.59588C9.7594 8.59588 11.4331 11.3991 11.4331 14.8637C11.4331 15.7456 11.3203 16.5645 11.1322 17.3204C10.5304 16.281 9.53372 14.1707 7.46506 14.1707C7.44626 14.2022 4.24925 14.2022 3.96716 14.1707ZM7.27701 18.0763L4.45612 18.0763C5.11432 19.903 6.29909 21.1315 7.67193 21.1315C8.38656 21.1315 9.06357 20.785 9.64656 20.1865L9.62774 20.1551C8.76268 18.7062 8.33014 18.0763 7.27701 18.0763ZM0.431641 2.95801L0.431641 14.9581C0.431641 16.596 0.977013 19.2417 2.63193 20.6905C1.95492 19.0527 1.56 17.0369 1.56 14.8952C1.56 9.22581 4.30566 4.59583 7.70954 4.59583C11.0946 4.59583 13.8402 9.19429 13.8402 14.8952C13.8402 16.8479 13.5206 18.7062 12.9376 20.2496C12.9564 20.281 12.9564 20.281 12.9564 20.281C13.3889 21.037 13.972 21.226 14.3668 21.226L14.9686 21.226L14.9686 2.95801L0.431641 2.95801ZM10.0979 26.4228L14.9498 26.4228L14.9498 24.2496L10.0979 24.2496L10.0979 26.4228Z" fill="rgb(255,255,255)" fill-rule="evenodd" />
	<path id="Vector" d="M10.097 24.2495L5.24512 24.2495L5.24512 26.4228L10.097 26.4228L10.097 24.2495Z" fill="rgb(255,255,255)" fill-rule="nonzero" />
	<path id="Vector" d="M102.585 1.54053C103.657 1.54053 104.522 2.98937 104.522 4.81615C104.522 6.61146 103.657 8.06028 102.585 8.06028C101.513 8.06028 100.629 6.61146 100.629 4.81615C100.629 2.98937 101.494 1.54053 102.585 1.54053ZM102.585 7.33587C103.412 7.33587 104.108 6.202 104.108 4.78466C104.108 3.39881 103.431 2.23345 102.585 2.23345C101.757 2.23345 101.061 3.36731 101.061 4.78466C101.061 6.202 101.738 7.33587 102.585 7.33587ZM102.472 5.09961L102.209 5.09961L102.209 6.61144L101.776 6.61144L101.776 2.95786L102.604 2.95786C103.149 2.95786 103.469 3.24134 103.469 4.02874C103.469 4.69018 103.224 5.03663 102.904 5.03663L103.469 6.57997L102.998 6.57997L102.472 5.09961ZM102.585 4.56418C102.848 4.56418 103.017 4.4067 103.017 4.02874C103.017 3.68229 102.829 3.55629 102.641 3.55629L102.19 3.55629L102.19 4.56418L102.585 4.56418ZM101.061 21.7928C101.174 22.2651 101.588 23.1787 102.698 23.1787C104.146 23.1787 104.447 21.9502 104.447 21.3517C104.447 20.2179 103.826 19.8085 103.506 19.6509L102.585 19.147C102.265 18.9581 101.908 18.7691 101.908 18.1076C101.908 17.5092 102.171 17.0368 102.792 17.0368C103.149 17.0368 103.581 17.2257 103.713 17.8242L104.353 17.5407C104.108 16.6588 103.525 16.3438 102.792 16.3438C102.058 16.3438 101.193 16.8478 101.193 18.1391C101.193 18.8321 101.475 19.3045 101.945 19.588L103.168 20.3124C103.356 20.4384 103.713 20.6588 103.713 21.3517C103.713 21.9187 103.375 22.4857 102.735 22.4857C102.058 22.4857 101.776 21.9187 101.682 21.4779L101.061 21.7928ZM105.33 16.4698L106.948 16.4698C107.568 16.4698 108.734 16.6273 108.734 18.3596C108.734 20.0289 107.756 20.3439 107.004 20.3439L105.989 20.3439L105.989 23.0211L105.33 23.0211L105.33 16.4698ZM105.97 19.6825L106.985 19.6825C107.625 19.6825 108.057 19.3045 108.057 18.4226C108.057 17.4147 107.455 17.1628 106.985 17.1628L105.97 17.1628L105.97 19.6825ZM111.33 16.4698L113.248 23.0211L112.533 23.0211L112.044 21.2572L109.712 21.2572L109.204 23.0211L108.527 23.0211L110.502 16.4698L111.33 16.4698ZM111.856 20.5959L111.179 18.3281C111.066 17.9502 110.972 17.5722 110.878 17.1942L110.859 17.1942C110.747 17.5722 110.653 17.9502 110.54 18.3281L109.863 20.5959L111.856 20.5959ZM25.7813 23.2101C21.0421 23.2101 19.2744 18.5171 19.2744 13.1312C19.2744 7.77682 21.061 2.95786 25.7813 2.95786L31.7803 2.95786C36.4818 2.95786 38.3249 7.80831 38.3249 13.1312C38.3249 16.6273 37.535 19.8399 35.7108 21.6352L38.4 26.4227L35.8988 26.4227L33.849 22.8007C33.2472 23.0525 32.5514 23.2101 31.7803 23.2101L25.7813 23.2101ZM32.1189 15.2415L33.9242 18.4856C34.9774 17.4147 35.5603 15.5879 35.5603 13.1312C35.5603 9.06817 33.9806 6.70594 31.2726 6.70594L26.3079 6.70594C23.581 6.70594 22.0389 9.03668 22.0389 13.1312C22.0389 17.2257 23.5622 19.525 26.3079 19.525L30.5768 19.525C31.0282 19.525 31.4607 19.4619 31.9119 19.3674L29.6364 15.3045L32.1189 15.3045L32.1189 15.2415ZM51.3761 23.2101C56.0776 23.2101 57.9206 18.8951 57.9206 13.2887L57.9206 3.24134L55.1562 3.24134L55.1562 13.2572C55.1562 17.6037 53.5764 19.4935 50.8684 19.4935L46.8063 19.4935C44.0607 19.4935 42.5373 17.6352 42.5373 13.2572L42.5373 3.24134L39.7729 3.24134L39.7729 13.2887C39.7729 18.9265 41.5595 23.2101 46.2797 23.2101L51.3761 23.2101ZM60.0269 22.9266L62.7913 22.9266L62.7913 3.24134L60.0269 3.24134L60.0269 22.9266ZM75.7863 6.70594C77.5916 6.70594 78.9268 7.71381 79.6039 9.76109L82.5376 9.76109C81.8794 5.95002 79.9612 2.95786 76.294 2.95786L70.9908 2.95786C66.2516 2.95786 64.4839 7.80831 64.4839 13.1627C64.4839 18.5486 66.2705 23.2101 70.9908 23.2101L76.294 23.2101C80.0741 23.2101 81.9923 20.1234 82.594 16.1864L79.6791 16.1864C79.0585 18.4226 77.7045 19.4935 75.7863 19.4935L71.4985 19.4935C68.7716 19.4935 67.2296 17.2257 67.2296 13.1312C67.2296 9.03668 68.7528 6.70594 71.4985 6.70594L75.7863 6.70594ZM94.2161 3.24134L86.9382 10.4225L86.9382 3.24134L84.249 3.24134L84.249 22.9266L86.9382 22.9266L86.9382 14.1706L94.9307 22.9266L99.557 22.9266L89.665 12.1863L98.7483 3.24134L94.2161 3.24134Z" fill="rgb(255,255,255)" fill-rule="nonzero" />
</svg>
