<svg viewBox="0 0 104 20" xmlns="http://www.w3.org/2000/svg" xmlns:xlink="http://www.w3.org/1999/xlink" width="104.000000" height="20.000000" fill="none">
	<rect id="logo-dometic.svg" width="104.000000" height="20.000000" x="0.000000" y="0.000000" />
	<path id="Vector" d="M31.2686 2.16024L27.1777 2.16024C26.7669 2.16024 26.4246 2.61143 26.4074 3.20512L26.4074 19.1869L31.2686 19.1869C34.6577 19.1869 37.4135 15.3636 37.4135 10.6617C37.4135 5.95977 34.6577 2.13649 31.2686 2.13649L31.2686 2.16024ZM29.4714 14.8886L29.4714 6.38723L31.2686 6.38723C32.946 6.38723 34.2298 8.287 34.2298 10.638C34.2298 12.9889 32.946 14.8886 31.2686 14.8886L29.4714 14.8886ZM62.2156 2.16024C61.9075 2.16024 61.6165 2.39772 61.4797 2.80142L58.8779 12.3715L56.2762 2.80142C56.1563 2.39772 55.8653 2.16024 55.5572 2.16024L51.9799 2.16024L51.9799 19.1395L55.0608 19.1395L55.0608 9.21314L57.868 19.0206L59.9391 19.0206L62.7463 9.23689L62.7463 19.1632L65.8102 19.1632L65.8102 2.16024L62.2156 2.16024ZM88.4043 19.1395L91.7249 19.1395L91.7249 2.16024L88.4043 2.16024L88.4043 19.1395ZM67.4363 2.16024L67.4363 18.0945C67.4363 18.6882 67.7786 19.1632 68.2065 19.1632L76.1144 19.1632L76.1144 14.8886L70.5173 14.8886L70.5173 12.0865L75.1217 12.0865L75.1217 8.47697L70.5173 8.47697L70.5173 6.36349L76.1144 6.36349L76.1144 2.16024L67.4363 2.16024ZM77.2955 2.16024L77.2955 5.34236C77.2955 5.93603 77.6379 6.41097 78.0657 6.41097L80.6162 6.41097L80.6162 19.1395L83.9368 19.1395L83.9368 6.41097L87.2575 6.41097L87.2575 2.11274L77.2955 2.16024ZM44.6367 1.94652C41.2134 1.94652 38.4405 5.84104 38.4405 10.638C38.4405 15.4586 41.1963 19.3532 44.6196 19.3532C48.043 19.3532 50.8159 15.4586 50.8159 10.638C50.8159 5.79356 48.0259 1.94652 44.6367 1.94652ZM44.6367 15.0075C42.9251 15.0075 41.5728 13.0602 41.5728 10.638C41.5728 8.19202 42.9423 6.26849 44.6367 6.26849C46.3313 6.26849 47.7006 8.21576 47.7006 10.638C47.7006 13.0839 46.2971 15.0075 44.6367 15.0075ZM98.9824 6.26849C99.8897 6.26849 100.745 6.81469 101.31 7.78832L103.518 4.72493C102.372 2.94389 100.728 1.92277 98.9996 1.92277C95.5762 1.92277 92.7691 5.84104 92.7691 10.6617C92.7691 15.4824 95.5762 19.3769 98.9996 19.3769C100.728 19.3532 102.354 18.3321 103.518 16.5748L101.31 13.5351C100.728 14.5088 99.8725 15.0549 98.9824 15.0549C97.3221 15.0549 95.9356 13.1077 95.9356 10.6855C95.9185 8.19202 97.2879 6.26849 98.9824 6.26849ZM14.032 9.87806L7.71594 1.06787L0.800781 10.638L2.90614 13.5589C3.21425 13.9626 3.69351 13.9626 4.00161 13.5589L7.69883 8.38199L11.9438 14.3188L14.032 11.3979C14.3401 10.9704 14.3401 10.3055 14.032 9.87806Z" fill="rgb(255,255,255)" fill-rule="nonzero" />
	<path id="Vector" d="M16.2194 1.06787L14.097 3.98877C13.806 4.41622 13.806 5.08114 14.097 5.50859L17.7943 10.638L13.5664 16.5272L15.6717 19.4244C15.9798 19.8281 16.4592 19.8281 16.7672 19.4244L23.1175 10.638L16.2194 1.06787Z" fill="rgb(255,255,255)" fill-rule="nonzero" />
</svg>
