<svg viewBox="0 0 36 36" xmlns="http://www.w3.org/2000/svg" xmlns:xlink="http://www.w3.org/1999/xlink" width="36.000000" height="36.000000" fill="none" customFrame="#000000">
	<rect id="SVG" width="36.000000" height="36.000000" x="0.000000" y="0.000000" />
	<path id="Vector" d="M18.5974 0.610352L17.4026 0.610352C7.79141 0.610352 0 8.40176 0 18.013C0 27.6241 7.79141 35.4156 17.4026 35.4156L18.5974 35.4156C28.2086 35.4156 36 27.6241 36 18.013C36 8.40176 28.2086 0.610352 18.5974 0.610352Z" fill="rgb(255,255,255)" fill-rule="evenodd" />
	<path id="Vector" d="M18.7431 10.2611C18.3002 9.93055 17.6998 9.93055 17.2569 10.2611L16.3664 10.9253C16.0417 11.1679 15.65 11.2977 15.2481 11.2969L14.1465 11.2945C13.5988 11.2937 13.1125 11.6548 12.9439 12.1884L12.6058 13.2613C12.4821 13.6523 12.2402 13.9933 11.9147 14.2343L11.0218 14.8944C10.5782 15.2233 10.3922 15.8077 10.5624 16.3406L10.9052 17.4118C11.0297 17.8028 11.0297 18.2236 10.9052 18.6145L10.5624 19.6858C10.3922 20.2186 10.5782 20.8031 11.0218 21.1319L11.9147 21.7921C12.2402 22.0331 12.4821 22.3741 12.6058 22.765L12.9439 23.8379C13.1125 24.3716 13.5988 24.7327 14.1465 24.7319L15.2481 24.7295C15.65 24.7287 16.0417 24.8584 16.3664 25.1011L17.2569 25.7653C17.6998 26.0958 18.3002 26.0958 18.7431 25.7653L19.6336 25.1011C19.9583 24.8584 20.35 24.7287 20.7519 24.7295L21.8535 24.7319C22.4012 24.7327 22.8875 24.3716 23.0561 23.8379L23.3942 22.765C23.5179 22.3741 23.7598 22.0331 24.0853 21.7921L24.9782 21.1319C25.4218 20.803 25.6078 20.2186 25.4376 19.6858L25.0948 18.6145C24.9703 18.2236 24.9703 17.8028 25.0948 17.4118L25.4376 16.3406C25.6078 15.8077 25.4218 15.2233 24.9782 14.8944L24.0853 14.2343C23.7598 13.9932 23.5179 13.6523 23.3942 13.2613L23.0561 12.1884C22.8875 11.6548 22.4012 11.2937 21.8535 11.2945L20.7519 11.2969C20.35 11.2977 19.9583 11.1679 19.6336 10.9253L18.7431 10.2611ZM16.1086 14.4664C15.5861 14.4664 15.163 14.8993 15.163 15.4337C15.163 15.9682 15.5861 16.401 16.1086 16.401C16.6311 16.401 17.0543 15.9682 17.0543 15.4337C17.0543 14.8993 16.6311 14.4664 16.1086 14.4664ZM14.5325 15.4337C14.5325 14.543 15.2378 13.8216 16.1086 13.8216C16.9794 13.8216 17.6847 14.543 17.6847 15.4337C17.6847 16.3245 16.9794 17.0459 16.1086 17.0459C15.2378 17.0459 14.5325 16.3245 14.5325 15.4337ZM20.2064 19.303C19.684 19.303 19.2608 19.7358 19.2608 20.2703C19.2608 20.8047 19.684 21.2376 20.2064 21.2376C20.7289 21.2376 21.1521 20.8047 21.1521 20.2703C21.1521 19.7358 20.7289 19.303 20.2064 19.303ZM18.6304 20.2703C18.6304 19.3795 19.3357 18.6581 20.2064 18.6581C21.0772 18.6581 21.7825 19.3795 21.7825 20.2703C21.7825 21.161 21.0772 21.8824 20.2064 21.8824C19.3357 21.8824 18.6304 21.161 18.6304 20.2703ZM21.375 15.017C21.498 14.8912 21.498 14.6865 21.375 14.5608C21.2521 14.435 21.0519 14.435 20.929 14.5608L14.6246 21.0095C14.5017 21.1352 14.5017 21.34 14.6246 21.4657C14.7476 21.5914 14.9477 21.5914 15.0707 21.4657L21.375 15.017Z" fill="rgb(20.2285,173.209,231.094)" fill-rule="evenodd" />
</svg>
