<svg viewBox="0 0 36 36" xmlns="http://www.w3.org/2000/svg" xmlns:xlink="http://www.w3.org/1999/xlink" width="36.000000" height="36.000000" fill="none" customFrame="#000000">
	<rect id="SVG" width="36.000000" height="36.000000" x="0.000000" y="0.000000" />
	<path id="Vector" d="M18.5974 0.805176L17.4026 0.805176C7.79141 0.805176 0 8.59658 0 18.2078C0 27.819 7.79141 35.6104 17.4026 35.6104L18.5974 35.6104C28.2086 35.6104 36 27.819 36 18.2078C36 8.59658 28.2086 0.805176 18.5974 0.805176Z" fill="rgb(255,255,255)" fill-rule="evenodd" />
	<path id="Vector" d="M19.9405 12.7477C20.1231 12.8132 20.3016 12.8871 20.4759 12.9708C20.6955 13.0774 20.9583 13.0321 21.1291 12.8585L22.1358 11.8505C22.3609 11.6274 22.7241 11.6267 22.95 11.8498L24.3471 13.2468C24.5702 13.472 24.5702 13.8359 24.3471 14.0611L23.3495 15.0678C23.1752 15.2386 23.1299 15.5021 23.2372 15.721C23.3202 15.8953 23.3948 16.0745 23.4603 16.2564C23.5391 16.4844 23.7538 16.6377 23.9957 16.6384L25.4235 16.6384C25.7413 16.6384 26 16.8964 26 17.215L26 19.1906C26 19.5085 25.7414 19.7671 25.4235 19.7671L23.9957 19.7671C23.7538 19.7671 23.5391 19.9205 23.4603 20.1485C23.3941 20.3269 23.3209 20.5054 23.2372 20.6839C23.1285 20.9035 23.1745 21.1684 23.3495 21.3392L24.3575 22.3459C24.5813 22.571 24.5813 22.9343 24.3575 23.1594L22.9514 24.5572C22.7262 24.7803 22.363 24.7803 22.1378 24.5572L21.1312 23.5575C20.9604 23.3832 20.6969 23.3379 20.4779 23.4452C20.2995 23.5289 20.121 23.6021 19.9425 23.6683C19.7146 23.7471 19.5612 23.9618 19.5605 24.2037L19.5605 25.6315C19.5605 25.9494 19.3026 26.208 18.984 26.208L17.0083 26.208C16.6905 26.208 16.4318 25.9494 16.4318 25.6315L16.4318 24.2037C16.4318 23.9618 16.2784 23.7471 16.0505 23.6683C15.8678 23.6028 15.6894 23.5282 15.5151 23.4452C15.2955 23.3386 15.0327 23.3839 14.8618 23.5575L13.8531 24.5572C13.6279 24.7803 13.2647 24.7803 13.0395 24.5572L11.6418 23.1594C11.4187 22.9343 11.4187 22.571 11.6418 22.3459L12.6498 21.3392C12.8241 21.1684 12.8701 20.9049 12.7628 20.686C12.6791 20.5075 12.6059 20.329 12.5397 20.1506C12.4609 19.9226 12.2462 19.7692 12.0043 19.7685L10.5765 19.7685C10.2579 19.7685 10 19.5106 10 19.192L10 17.2164C10 16.8985 10.2579 16.6398 10.5765 16.6398L12.0043 16.6398C12.2462 16.6398 12.4609 16.4864 12.5397 16.2585C12.6052 16.0758 12.6791 15.8974 12.7628 15.7231C12.8701 15.5035 12.8248 15.24 12.6505 15.0699L11.6418 14.0611C11.4187 13.8359 11.4187 13.4727 11.6418 13.2475L13.0395 11.8498C13.2647 11.6267 13.6279 11.6267 13.8531 11.8498L14.8598 12.8578C15.0306 13.0321 15.2941 13.0781 15.513 12.9708C15.6873 12.8871 15.8664 12.8132 16.0484 12.7477C16.2763 12.6689 16.4297 12.4542 16.4304 12.2123L16.4304 10.7845C16.4304 10.4659 16.6884 10.208 17.007 10.208L18.9826 10.208C19.3005 10.208 19.5591 10.4659 19.5591 10.7845L19.5591 12.2123C19.5591 12.4542 19.7125 12.6689 19.9405 12.7477ZM17.9955 13.8666C16.6466 13.8659 15.3742 14.4933 14.5523 15.5627C13.7311 16.6328 13.4544 18.0243 13.8029 19.3273C14.1515 20.6303 15.0864 21.6968 16.3329 22.2135C17.5787 22.7301 18.9945 22.6374 20.163 21.9632C21.3307 21.2884 22.1192 20.1095 22.2955 18.7717C22.4712 17.4346 22.0152 16.0911 21.0615 15.1376C20.2494 14.3226 19.1459 13.8652 17.9955 13.8666ZM20.78 15.4191C19.9141 14.5533 18.6948 14.1392 17.4805 14.2988C16.2667 14.4585 15.1952 15.1737 14.5832 16.2341C13.9704 17.2945 13.8861 18.5794 14.3546 19.7107C14.823 20.8421 15.7914 21.6913 16.9745 22.0085C18.1575 22.3249 19.42 22.074 20.3918 21.3287C21.3636 20.5828 21.9324 19.4284 21.9324 18.2034C21.9338 17.1591 21.5189 16.1574 20.78 15.4191ZM17.8959 15.4798L15.6992 16.7472C15.6316 16.7813 15.5876 16.8497 15.5862 16.9256L15.5862 19.4779C15.5835 19.5511 15.6218 19.6201 15.6859 19.6564C16.4214 20.0837 17.1569 20.5083 17.8938 20.9307C17.9558 20.967 18.0332 20.967 18.0952 20.9307L20.292 19.6633C20.3596 19.6292 20.4035 19.5609 20.4049 19.4849L20.4049 16.9278C20.4084 16.8539 20.3694 16.7849 20.3052 16.7493L18.0974 15.4819C18.0354 15.445 17.958 15.445 17.8959 15.4819L17.8959 15.4798ZM16.1845 16.927L17.9956 17.9734L19.8066 16.9277L17.9956 15.8834L16.1845 16.927ZM15.9865 17.2735L15.9858 19.3636L17.7956 20.4093L17.7956 18.3178L15.9865 17.2735ZM18.1957 18.3178L18.1957 20.4093L20.0056 19.3636L20.0056 17.2736L18.1957 18.3178Z" fill="rgb(20.2285,173.209,231.094)" fill-rule="evenodd" />
</svg>
