<svg viewBox="0 0 13.9199 16" xmlns="http://www.w3.org/2000/svg" xmlns:xlink="http://www.w3.org/1999/xlink" width="13.919922" height="16.000000" fill="none" customFrame="#000000">
	<rect id="Icon" width="13.920000" height="16.000000" x="0.000000" y="0.000000" transform="matrix(1,0,0,-1,0,16)" />
	<path id="Vector" d="M8.47322 8.47322C8.47322 8.47322 8.58482 8.36161 8.80804 8.13839C9.03125 7.91518 9.14286 7.4881 9.14286 6.85714C9.14286 6.22619 8.91964 5.6875 8.47322 5.24107C8.02679 4.79464 7.4881 4.57143 6.85714 4.57143C6.22619 4.57143 5.6875 4.79464 5.24107 5.24107C4.79464 5.6875 4.57143 6.22619 4.57143 6.85714C4.57143 7.4881 4.79464 8.02679 5.24107 8.47322C5.6875 8.91964 6.22619 9.14286 6.85714 9.14286C7.4881 9.14286 8.02679 8.91964 8.47322 8.47322ZM9.29464 11.0625C9.29464 11.0625 9.10863 11.1711 8.73661 11.3884C8.36458 11.6057 7.7381 11.7143 6.85714 11.7143C5.97619 11.7143 5.16369 11.497 4.41964 11.0625C3.6756 10.628 3.08631 10.0387 2.65179 9.29464C2.21726 8.5506 2 7.7381 2 6.85714C2 5.97619 2.21726 5.16369 2.65179 4.41964C3.08631 3.6756 3.6756 3.08631 4.41964 2.65179C5.16369 2.21726 5.97619 2 6.85714 2C7.7381 2 8.5506 2.21726 9.29464 2.65179C10.0387 3.08631 10.628 3.6756 11.0625 4.41964C11.497 5.16369 11.7143 5.97619 11.7143 6.85714C11.7143 7.7381 11.497 8.5506 11.0625 9.29464C10.628 10.0387 10.0387 10.628 9.29464 11.0625ZM12.7946 10.2991C12.7946 10.2991 12.9479 10.0365 13.2545 9.51116C13.561 8.98586 13.7143 8.10119 13.7143 6.85714C13.7143 5.6131 13.4077 4.46577 12.7946 3.41518C12.1815 2.36458 11.3497 1.53274 10.2991 0.919643C9.24851 0.306548 8.10119 0 6.85714 0C5.6131 0 4.46577 0.306548 3.41518 0.919643C2.36458 1.53274 1.53274 2.36458 0.919643 3.41518C0.306548 4.46577 0 5.6131 0 6.85714C0 8.10119 0.306548 9.24851 0.919643 10.2991C1.53274 11.3497 2.36458 12.1815 3.41518 12.7946C4.46577 13.4077 5.6131 13.7143 6.85714 13.7143C8.10119 13.7143 9.24851 13.4077 10.2991 12.7946C11.3497 12.1815 12.1815 11.3497 12.7946 10.2991Z" fill="rgb(21,169,225)" fill-rule="nonzero" transform="matrix(1,0,0,-1,0.102539,14.8572)" />
</svg>
