<svg viewBox="0 0 50 50" xmlns="http://www.w3.org/2000/svg" xmlns:xlink="http://www.w3.org/1999/xlink" width="50.000000" height="50.000000" fill="none" customFrame="#000000">
	<rect id="SVG" width="50.000000" height="50.000000" x="0.000000" y="0.000000" transform="matrix(3.46945e-18,1,-1,3.46945e-18,50,0)" />
	<path id="Vector" d="M50 25C50 11.1929 38.8071 0 25 0C11.1929 0 0 11.1929 0 25C0 38.8071 11.1929 50 25 50C38.8071 50 50 38.8071 50 25Z" fill="rgb(255,255,255)" fill-rule="evenodd" transform="matrix(-3.46945e-18,-1,-1,3.46945e-18,50,50)" />
	<path id="Vector" d="M0.292641 7.54971L6.77403 0.354573C7.13792 -0.0293164 7.9182 -0.161538 8.34361 0.263462C8.76917 0.688323 8.76639 1.49485 8.3382 1.91666L3.58973 7.19471L18.3642 7.19471C18.9608 7.19471 19.4444 7.70332 19.4444 8.33068C19.4444 8.95818 18.9608 9.46679 18.3642 9.46679L3.58973 9.46679L8.3382 14.7449C8.76653 15.1667 8.79486 16.0035 8.34361 16.398C7.92667 16.7626 7.1525 16.7785 6.77403 16.3069L0.292641 9.11179C0.0172242 8.82124 -0.197776 8.05694 0.292641 7.54971Z" fill="rgb(9,116,181)" fill-rule="nonzero" transform="matrix(3.46945e-18,1,-1,3.46945e-18,33.333,15.2778)" />
</svg>
