<svg viewBox="0 0 56 56" xmlns="http://www.w3.org/2000/svg" xmlns:xlink="http://www.w3.org/1999/xlink" width="56.000000" height="56.000000" fill="none">
	<rect id="variant=6" width="56.000000" height="56.000000" x="0.000000" y="0.000000" />
	<path id="Vector" d="M55 27.5C55 42.6878 42.6878 55 27.5 55C12.3122 55 0 42.6878 0 27.5C0 12.3122 12.3122 0 27.5 0C42.6878 0 55 12.3122 55 27.5Z" stroke="rgb(255,255,255)" stroke-width="1" transform="matrix(-1,0,0,1,55.5,0.5)" />
	<path id="Vector" d="M11.3429 0L0.8 0C0.358172 0 0 0.358172 0 0.8C0 1.24183 0.358172 1.6 0.8 1.6L11.3429 1.6C11.7847 1.6 12.1429 1.24183 12.1429 0.8C12.1429 0.358172 11.7847 0 11.3429 0Z" fill="rgb(255,255,255)" fill-rule="evenodd" transform="matrix(-1,0,0,1,34.0713,22.9143)" />
	<path id="Vector" d="M7.77143 0L0.8 0C0.358172 0 0 0.358172 0 0.8C0 1.24183 0.358172 1.6 0.8 1.6L7.77143 1.6C8.21326 1.6 8.57143 1.24183 8.57143 0.8C8.57143 0.358172 8.21326 0 7.77143 0Z" fill="rgb(255,255,255)" fill-rule="evenodd" transform="matrix(-1,0,0,1,34.0713,27.2)" />
	<path id="Vector" d="M11.3429 0L0.8 0C0.358172 0 0 0.358172 0 0.8C0 1.24183 0.358172 1.6 0.8 1.6L11.3429 1.6C11.7847 1.6 12.1429 1.24183 12.1429 0.8C12.1429 0.358172 11.7847 0 11.3429 0Z" fill="rgb(255,255,255)" fill-rule="evenodd" transform="matrix(-1,0,0,1,34.0713,31.4857)" />
</svg>
