<svg viewBox="0 0 37 35" xmlns="http://www.w3.org/2000/svg" xmlns:xlink="http://www.w3.org/1999/xlink" width="37.000000" height="35.000000" fill="none" customFrame="#000000">
	<g id="Group 232">
		<path id="Vector" d="M36 17C36 26.3888 27.9411 34 18 34C8.05888 34 0 26.3888 0 17C0 7.61116 8.05888 0 18 0C27.9411 0 36 7.61116 36 17Z" stroke="rgb(255,255,255)" stroke-width="1" transform="matrix(-1,0,0,1,36.5,0.5)" />
		<path id="Vector" d="M14.9459 0L1.05411 0C0.471943 0 0 0.447715 0 1C0 1.55228 0.471943 2 1.05411 2L14.9459 2C15.5281 2 16 1.55228 16 1C16 0.447715 15.5281 0 14.9459 0Z" fill="rgb(255,255,255)" fill-rule="evenodd" transform="matrix(-1,0,0,1,26.5,13.5)" />
		<path id="Vector" d="M10.88 0L1.12 0C0.501441 0 0 0.447715 0 1C0 1.55228 0.501441 2 1.12 2L10.88 2C11.4986 2 12 1.55228 12 1C12 0.447715 11.4986 0 10.88 0Z" fill="rgb(255,255,255)" fill-rule="evenodd" transform="matrix(-1,0,0,1,26,17.0137)" />
		<path id="Vector" d="M14.9459 0L1.05411 0C0.471943 0 0 0.447715 0 1C0 1.55228 0.471943 2 1.05411 2L14.9459 2C15.5281 2 16 1.55228 16 1C16 0.447715 15.5281 0 14.9459 0Z" fill="rgb(255,255,255)" fill-rule="evenodd" transform="matrix(-1,0,0,1,26,21.0137)" />
	</g>
</svg>
