<svg viewBox="0 0 20.002 16" xmlns="http://www.w3.org/2000/svg" xmlns:xlink="http://www.w3.org/1999/xlink" width="20.001953" height="16.000000" fill="none" customFrame="#000000">
	<rect id="variant=2" width="20.000000" height="16.000000" x="0.000000" y="0.000000" />
	<path id="Vector" d="M7.14507 15.5C8.13128 15.5 8.93077 14.7005 8.93077 13.7143C8.93077 12.7281 8.13128 11.9286 7.14507 11.9286C6.15886 11.9286 5.35938 12.7281 5.35938 13.7143C5.35938 14.7005 6.15886 15.5 7.14507 15.5Z" fill="rgb(19,169,225)" fill-rule="evenodd" />
	<path id="Vector" d="M15.7154 15.5C16.7016 15.5 17.5011 14.7005 17.5011 13.7143C17.5011 12.7281 16.7016 11.9286 15.7154 11.9286C14.7292 11.9286 13.9297 12.7281 13.9297 13.7143C13.9297 14.7005 14.7292 15.5 15.7154 15.5Z" fill="rgb(19,169,225)" fill-rule="evenodd" />
	<path id="Vector" d="M17.4142 2.72847C17.2134 2.47842 16.9589 2.27671 16.6696 2.13824C16.3803 1.99977 16.0636 1.92808 15.7429 1.92847L14.6 1.92847C14.6 1.97852 14.5929 2.02847 14.5929 2.07847L14.25 7.9999L20 7.9999L20 6.71418C20.0009 6.22806 19.8345 5.75644 19.5287 5.37856L17.4142 2.72847Z" fill="rgb(19,169,225)" fill-rule="evenodd" />
	<path id="Vector" d="M14.0234 11.8856C14.4805 11.4525 15.0867 11.2121 15.7164 11.2142C16.3792 11.2149 17.0146 11.4786 17.4833 11.9472C17.952 12.4159 18.2156 13.0514 18.2163 13.7142C18.2178 13.8339 18.2082 13.9534 18.1878 14.0713L18.5735 14.0713C18.952 14.0702 19.3147 13.9194 19.5824 13.6517C19.8501 13.384 20.0009 13.0213 20.002 12.6428L20.002 9.42847L14.1664 9.42847L14.0234 11.8856Z" fill="rgb(19,169,225)" fill-rule="evenodd" />
	<path id="Vector" d="M0.714278 4.07143L4.99995 4.07143C5.18938 4.07143 5.37106 4.14668 5.50502 4.28064C5.63897 4.41459 5.71422 4.59627 5.71422 4.78572C5.71422 4.97516 5.63897 5.15684 5.50502 5.29079C5.37106 5.42475 5.18938 5.5 4.99995 5.5L1.42856 5.5C1.23912 5.5 1.05744 5.57526 0.923485 5.70921C0.789532 5.84316 0.714278 6.02485 0.714278 6.21429C0.714278 6.40373 0.789532 6.58541 0.923485 6.71936C1.05744 6.85332 1.23912 6.92857 1.42856 6.92857L4.28567 6.92857C4.47511 6.92857 4.65679 7.00383 4.79074 7.13778C4.92469 7.27174 4.99995 7.45342 4.99995 7.64286C4.99995 7.8323 4.92469 8.01398 4.79074 8.14793C4.65679 8.28189 4.47511 8.35714 4.28567 8.35714L1.93375 8.35714C1.74431 8.35714 1.56263 8.4324 1.42868 8.56635C1.29473 8.70031 1.21947 8.88199 1.21947 9.07143C1.21947 9.26087 1.29473 9.44255 1.42868 9.57651C1.56263 9.71046 1.74431 9.78571 1.93375 9.78571L2.85711 9.78571C3.04655 9.78571 3.22823 9.86097 3.36218 9.99492C3.49614 10.1289 3.57139 10.3106 3.57139 10.5C3.57139 10.6894 3.49614 10.8711 3.36218 11.0051C3.22823 11.139 3.04655 11.2143 2.85711 11.2143L0.964347 11.2143L0.814348 12.4786C0.790644 12.6784 0.809533 12.881 0.869771 13.073C0.93001 13.265 1.03023 13.4421 1.16384 13.5926C1.29745 13.743 1.46141 13.8635 1.64494 13.946C1.82846 14.0286 2.02739 14.0713 2.22862 14.0714L4.67138 14.0714C4.65093 13.9535 4.64137 13.834 4.64281 13.7143C4.64381 13.3118 4.7416 12.9154 4.92794 12.5586C5.11427 12.2018 5.38368 11.895 5.71344 11.6642C6.0432 11.4333 6.42364 11.2852 6.82267 11.2322C7.22169 11.1793 7.6276 11.2231 8.00616 11.3599C8.51259 11.5351 8.94715 11.8723 9.24256 12.3194C9.53798 12.7665 9.67778 13.2985 9.64031 13.833C9.6371 13.913 9.62837 13.9927 9.61418 14.0714L12.1427 14.0714C12.3251 14.0721 12.5007 14.0028 12.6335 13.8779C12.7664 13.7531 12.8464 13.5821 12.857 13.4L13.5284 2.01429C13.54 1.81963 13.5116 1.62466 13.445 1.44137C13.3784 1.25809 13.2751 1.09036 13.1412 0.948516C13.0074 0.806672 12.846 0.693708 12.6669 0.616575C12.4878 0.539441 12.2948 0.49977 12.0998 0.500001L3.1717 0.500001C2.9085 0.499996 2.6545 0.596876 2.45815 0.772165C2.2618 0.947454 2.13685 1.18888 2.10712 1.45041L1.97141 2.64286L0.714278 2.64286C0.52484 2.64286 0.34316 2.71811 0.209207 2.85207C0.0752541 2.98602 0 3.1677 0 3.35714C0 3.54658 0.0752541 3.72827 0.209207 3.86222C0.34316 3.99617 0.52484 4.07143 0.714278 4.07143Z" fill="rgb(19,169,225)" fill-rule="evenodd" />
</svg>
