<svg viewBox="0 0 60 60" xmlns="http://www.w3.org/2000/svg" xmlns:xlink="http://www.w3.org/1999/xlink" width="60.000000" height="60.000000" fill="none" customFrame="#000000">
	<rect id="variant=21" width="60.000000" height="60.000000" x="0.000000" y="0.000000" />
	<path id="Vector" d="M60 30C60 13.4315 46.5685 0 30 0C13.4315 0 0 13.4315 0 30C0 46.5685 13.4315 60 30 60C46.5685 60 60 46.5685 60 30Z" fill="rgb(255,255,255)" fill-opacity="0.200000003" fill-rule="evenodd" />
	<path id="Vector" d="M43.9179 25.6773L43.1723 23.3823C43.0388 22.9445 42.5278 22.685 42.0988 22.8388L41.1602 23.1442C40.8728 22.6637 40.5405 22.2057 40.1677 21.779L40.7471 20.9795C41.0255 20.6135 40.9333 20.0521 40.5583 19.7893L38.6092 18.3747C38.2442 18.0961 37.6816 18.1882 37.419 18.5632L36.8396 19.3581C36.3275 19.1382 35.7886 18.9629 35.2361 18.8372L35.2361 17.8536C35.2361 17.3821 34.8544 17.0002 34.3827 17.0002L31.9753 17.0002C31.5038 17.0002 31.122 17.3819 31.122 17.8536L31.122 18.8372C30.5696 18.9629 30.0305 19.1382 29.5186 19.3581L28.9392 18.5632C28.6607 18.1814 28.1262 18.0961 27.749 18.3747L25.7997 19.7893C25.418 20.0677 25.3327 20.5978 25.6111 20.9795L26.1905 21.779C26.0603 21.9272 25.9389 22.0753 25.8177 22.2325C26.9135 22.5425 27.9331 23.0904 28.7865 23.8449C32.4008 19.8779 39.1682 22.4683 39.1616 27.8961C39.1616 31.0085 36.7722 33.5729 33.7361 33.8515L36.4712 36.5867C36.597 36.5417 36.7183 36.4923 36.8396 36.4385L37.419 37.2333C37.6974 37.6152 38.2273 37.7005 38.6092 37.4221L40.5583 36.0073C40.9402 35.7288 41.0255 35.1988 40.7471 34.8171L40.1677 34.0177C40.5405 33.5911 40.8728 33.1329 41.1602 32.6523L42.099 32.9578C42.5312 33.1116 43.0376 32.8522 43.1724 32.4144L43.9179 30.1192C44.0595 29.6837 43.8203 29.1952 43.37 29.0459L42.4313 28.7405C42.4853 28.1611 42.4853 27.6378 42.4313 27.0562L43.37 26.7508C43.8147 26.6027 44.0616 26.122 43.9179 25.6773Z" fill="rgb(255,255,255)" fill-rule="evenodd" />
	<path id="Vector" d="M30.1742 31.5553C31.7462 26.551 27.0741 21.6812 22.0033 23.0669C21.8482 23.1085 21.727 23.2287 21.6854 23.3848C21.644 23.5397 21.6877 23.7058 21.8023 23.8193L25.485 27.5019L24.9404 30.7681L21.6742 31.3127L17.9915 27.6299C17.8769 27.5166 17.7118 27.4716 17.5569 27.5132C17.402 27.5548 17.2806 27.676 17.2391 27.8309C15.8535 32.9016 20.7266 37.5737 25.7289 36.0017L31.3655 41.638C32.4704 42.5386 33.9176 41.5786 34.8585 40.6848C35.7613 39.7911 36.7034 38.1753 35.8119 37.1919L30.1742 31.5553Z" fill="rgb(255,255,255)" fill-rule="evenodd" />
	<path id="Vector" d="M32.5685 32.6796C35.4878 33.0681 38.1423 30.7247 38.1197 27.7795C38.1253 23.2223 32.4144 21.1337 29.4648 24.5189C31.0997 26.3648 31.733 28.8799 31.1761 31.2872L32.5685 32.6796Z" fill="rgb(255,255,255)" fill-rule="evenodd" />
</svg>
