<svg viewBox="0 0 12 16" xmlns="http://www.w3.org/2000/svg" xmlns:xlink="http://www.w3.org/1999/xlink" width="12.000000" height="16.000000" fill="none" customFrame="#000000">
	<rect id="variant=1" width="12.000000" height="16.000000" x="0.000000" y="0.000000" />
	<path id="Vector" d="M5.99709 0.417786C2.68323 0.417786 0 3.1039 0 6.41487C0 8.71888 2.8993 12.714 4.6673 14.9381C5.25072 15.6755 6.32279 15.7969 7.05728 15.2135C7.15797 15.1336 7.24977 15.0418 7.3327 14.9381C9.1007 12.717 12 8.71888 12 6.41487C11.9941 3.1039 9.3111 0.417786 5.99709 0.417786ZM5.99709 8.79288C4.68515 8.79288 3.62197 7.7297 3.61894 6.41775C3.61597 5.10581 4.68211 4.0396 5.99406 4.0396C7.306 4.0396 8.37221 5.10278 8.37221 6.41472C8.37221 7.72964 7.30903 8.79288 5.99709 8.79288Z" fill="rgb(19,169,225)" fill-rule="evenodd" />
</svg>
