<svg viewBox="0 0 24.0903 25.5002" xmlns="http://www.w3.org/2000/svg" xmlns:xlink="http://www.w3.org/1999/xlink" width="24.090332" height="25.500214" fill="none" customFrame="#000000">
	<defs>
		<g id="pixso_custom_effect_0">
			<effect x="0.000000" y="4.000000" visibility="visible" fill="rgb(0,0,0)" fill-opacity="0.25" effectType="dropShadow" stdDeviation="4" radius="0" />
		</g>
		<filter id="filter_0" width="24.090332" height="25.500214" x="0.000000" y="0.000000" filterUnits="userSpaceOnUse" customEffect="url(#pixso_custom_effect_0)" color-interpolation-filters="sRGB">
			<feFlood flood-opacity="0" result="BackgroundImageFix" />
			<feColorMatrix result="hardAlpha" in="SourceAlpha" type="matrix" values="0 0 0 0 0 0 0 0 0 0 0 0 0 0 0 0 0 0 127 0 " />
			<feOffset dx="0.000000" dy="4.000000" in="hardAlpha" />
			<feGaussianBlur stdDeviation="1.33333337" />
			<feComposite k2="-1" k3="1" in2="hardAlpha" operator="out" />
			<feColorMatrix type="matrix" values="0 0 0 0 0 0 0 0 0 0 0 0 0 0 0 0 0 0 0.25 0 " />
			<feBlend result="effect_dropShadow_1" in2="BackgroundImageFix" mode="normal" />
			<feBlend result="shape" in="SourceGraphic" in2="effect_dropShadow_1" mode="normal" />
		</filter>
		<clipPath id="clipPath_0">
			<rect width="17.000000" height="18.000000" x="4.000000" y="0.000000" fill="rgb(255,255,255)" />
		</clipPath>
	</defs>
	<g filter="url(#filter_0)" customFrame="url(#clipPath_0)">
		<rect id="variant=3" width="17.000000" height="18.000000" x="4.000000" y="0.000000" />
		<path id="Vector" d="M6.03043 1.87354C6.40038 1.51628 6.83443 1.35167 7.34977 1.49951C7.58371 1.56559 7.78472 1.69638 7.95621 1.86572C8.67196 2.58028 9.39432 3.2903 10.1007 4.01416C10.6804 4.60779 10.6756 5.33387 10.0978 5.93213L10.0988 5.93115C9.68877 6.35256 9.26625 6.76425 8.84879 7.17822C8.65502 7.37075 8.65312 7.38148 8.76481 7.6333C9.02299 8.21206 9.36759 8.73878 9.7609 9.23194C10.6892 10.3969 11.7333 11.4388 12.9933 12.2437C13.3177 12.4512 13.6717 12.6131 14.0129 12.7964C14.1289 12.86 14.2052 12.7914 14.2814 12.7153C14.6607 12.3366 15.0388 11.9573 15.4181 11.5786C15.5112 11.4857 15.6017 11.3937 15.7023 11.3101C16.2224 10.8765 16.8572 10.8627 17.38 11.2935C17.652 11.5176 17.8933 11.7816 18.1457 12.0317C18.6442 12.5267 19.143 13.0203 19.6369 13.5181C19.9519 13.8344 20.1389 14.206 20.0793 14.6685C20.0391 14.9856 19.8862 15.247 19.6691 15.4712C19.2106 15.9401 18.7501 16.409 18.2804 16.8667C17.7717 17.3616 17.1369 17.5235 16.4455 17.4976C15.5388 17.4622 14.6773 17.229 13.8498 16.8765C11.2018 15.7469 8.98815 14.0413 7.16324 11.8286C5.94707 10.3509 4.96866 8.74121 4.35074 6.92139C4.11685 6.2311 4.00215 5.61105 4.00211 4.90869C3.97322 4.23692 4.24079 3.59353 4.82047 3.0669C5.24075 2.68826 5.62228 2.26614 6.03043 1.87354ZM14.5607 0.502443L14.5636 0.502443C16.27 0.757889 17.8013 1.65571 18.8214 2.99854C19.8423 4.34107 20.2691 6.01926 20.008 7.66455C19.9917 7.78386 19.9262 7.89202 19.8263 7.96436C19.7269 8.0367 19.6 8.06824 19.4767 8.05029C19.353 8.03172 19.2423 7.96614 19.1691 7.86865C19.096 7.77113 19.0671 7.64854 19.088 7.52979C19.3124 6.11966 18.9471 4.68093 18.0724 3.52979C17.1975 2.37794 15.8841 1.60801 14.4211 1.38819C14.1752 1.34316 14.0108 1.11915 14.048 0.880373C14.0858 0.642329 14.3121 0.475401 14.5607 0.502443ZM14.2775 2.27588C15.4971 2.45699 16.5921 3.09772 17.3214 4.05713C18.0514 5.01606 18.3569 6.2158 18.1691 7.39112C18.1528 7.51044 18.0873 7.61858 17.9875 7.69092C17.8875 7.76321 17.7617 7.79472 17.6379 7.77686C17.5145 7.75835 17.4029 7.69279 17.3302 7.59522C17.2571 7.49768 17.2283 7.37514 17.2492 7.25635C17.3997 6.31603 17.1567 5.356 16.5734 4.58838C15.9902 3.82019 15.1138 3.30791 14.1379 3.1626C14.0122 3.14859 13.8982 3.08579 13.8215 2.98877C13.7441 2.89231 13.7114 2.7695 13.7306 2.64893C13.7499 2.5285 13.8182 2.42069 13.9211 2.3501C14.0246 2.28003 14.1536 2.25289 14.2775 2.27588ZM13.9982 4.04932C14.7293 4.15988 15.3856 4.5452 15.8224 5.12158C16.2592 5.69756 16.4421 6.4177 16.3293 7.12256C16.2942 7.34094 16.0992 7.50224 15.8703 7.50244C15.846 7.50244 15.8217 7.50089 15.798 7.49756C15.6764 7.47962 15.566 7.41531 15.4933 7.31885C15.4201 7.22297 15.3901 7.10258 15.4093 6.98487C15.5656 6.00587 14.8688 5.08938 13.8527 4.93799C13.5988 4.89968 13.4275 4.66917 13.467 4.42432C13.4856 4.30664 13.5522 4.20103 13.6515 4.13037C13.751 4.06027 13.876 4.03137 13.9982 4.04932Z" fill="rgb(19,169,225)" fill-rule="evenodd" />
	</g>
</svg>
