<svg viewBox="0 0 20 20" xmlns="http://www.w3.org/2000/svg" xmlns:xlink="http://www.w3.org/1999/xlink" width="20.000000" height="20.000000" fill="none" customFrame="#000000">
	<rect id="SVG" width="20.000000" height="20.000000" x="0.000000" y="0.000000" />
	<path id="Vector" d="M20 10C20 4.47715 15.5228 0 10 0C4.47715 0 0 4.47715 0 10C0 15.5228 4.47715 20 10 20C15.5228 20 20 15.5228 20 10Z" fill="rgb(255,255,255)" fill-opacity="0.5" fill-rule="evenodd" />
	<path id="Vector" d="M14.1667 9.16667L10.8333 9.16667L10.8333 5.83333C10.8333 5.37333 10.46 5 10 5C9.54 5 9.16667 5.37333 9.16667 5.83333L9.16667 9.16667L5.83333 9.16667C5.37333 9.16667 5 9.54 5 10C5 10.46 5.37333 10.8333 5.83333 10.8333L9.16667 10.8333L9.16667 14.1667C9.16667 14.6275 9.54 15 10 15C10.46 15 10.8333 14.6275 10.8333 14.1667L10.8333 10.8333L14.1667 10.8333C14.6275 10.8333 15 10.46 15 10C15 9.54 14.6275 9.16667 14.1667 9.16667Z" fill="rgb(255,255,255)" fill-rule="nonzero" />
</svg>
