<svg viewBox="0 0 13 13" xmlns="http://www.w3.org/2000/svg" xmlns:xlink="http://www.w3.org/1999/xlink" width="13.000000" height="13.000000" fill="none" customFrame="#000000">
	<rect id="variant=5" width="13.000000" height="13.000000" x="0.000000" y="0.000000" />
	<path id="Vector" d="M5.929 10.858C8.6534 10.858 10.858 8.65341 10.858 5.92901C10.858 3.2046 8.6534 1 5.929 1C3.20459 1 1 3.2046 1 5.92901C1 8.65341 3.20459 10.858 5.929 10.858ZM5.929 1.94483C8.11753 1.94483 9.91317 3.72441 9.91317 5.92901C9.91256 8.1336 8.11769 9.91318 5.929 9.91318C3.74047 9.91318 1.94483 8.1336 1.94483 5.92901C1.94483 3.72441 3.72441 1.94483 5.929 1.94483Z" fill="rgb(19,169,225)" fill-rule="evenodd" />
	<path id="Vector" d="M10.858 5.92901C10.858 3.2046 8.6534 1 5.929 1C3.20459 1 1 3.2046 1 5.92901C1 8.65341 3.20459 10.858 5.929 10.858C8.6534 10.858 10.858 8.65341 10.858 5.92901ZM9.91317 5.92901C9.91256 8.1336 8.11769 9.91318 5.929 9.91318C3.74047 9.91318 1.94483 8.1336 1.94483 5.92901C1.94483 3.72441 3.72441 1.94483 5.929 1.94483C8.11753 1.94483 9.91317 3.72441 9.91317 5.92901Z" fill-rule="evenodd" stroke="rgb(19,169,225)" stroke-width="0.600000024" />
	<path id="Vector" d="M8.96777 10.5591L10.9522 12.7011C11.1257 12.8899 11.3773 13 11.6295 13C11.8657 13 12.0859 12.9053 12.2594 12.7478C12.4328 12.5743 12.5429 12.3541 12.5583 12.1019C12.5743 11.8497 12.4796 11.6135 12.3061 11.4407L10.3223 9.29938C9.9446 9.78718 9.48755 10.2122 8.96777 10.5591Z" fill="rgb(19,169,225)" fill-rule="evenodd" />
</svg>
