<svg viewBox="0 0 17 17" xmlns="http://www.w3.org/2000/svg" xmlns:xlink="http://www.w3.org/1999/xlink" width="17.000000" height="17.000000" fill="none" customFrame="#000000">
	<rect id="variant=69" width="17.000000" height="17.000000" x="0.000000" y="0.000000" />
	<path id="Vector" d="M0.675732 9.16713L0.604682 9.16713C0.271342 9.16713 0 8.89654 0 8.56244C0 8.22834 0.271342 7.95775 0.604682 7.95775L0.675732 7.95775C0.968998 4.10205 4.04299 1.01822 7.89495 0.709L7.89495 0.604692C7.89495 0.270592 8.16554 0 8.49963 0C8.83373 0 9.10432 0.270592 9.10432 0.604692L9.10432 0.704464C12.9857 0.984132 16.0913 4.08009 16.387 7.95767L16.3953 7.95767C16.7294 7.95767 17 8.22826 17 8.56236C17 8.89646 16.7294 9.16705 16.3953 9.16705L16.387 9.16705C16.0922 13.0438 12.9857 16.1406 9.10432 16.4202C9.09147 16.7423 8.82541 17 8.50039 17C8.17311 17 7.90629 16.74 7.89646 16.415C4.04469 16.1066 0.970585 13.0227 0.677241 9.16622L0.675732 9.16713ZM7.89495 4.33483L7.89495 7.35828C7.89495 7.83902 8.08618 8.30085 8.42632 8.64098C8.76645 8.98112 9.22827 9.17236 9.709 9.17236L11.5253 9.17236C11.8594 9.17236 12.13 8.90177 12.13 8.56767C12.13 8.23357 11.8594 7.96298 11.5253 7.96298L9.709 7.96298C9.54876 7.96298 9.39456 7.89948 9.28119 7.7861C9.16781 7.67272 9.10432 7.51853 9.10432 7.35829L9.10432 4.33483C9.10432 4.00074 8.83373 3.73014 8.49964 3.73014C8.16555 3.73014 7.89495 4.00073 7.89495 4.33483Z" fill="rgb(255,255,255)" fill-rule="evenodd" />
</svg>
