<svg viewBox="0 0 17 18" xmlns="http://www.w3.org/2000/svg" xmlns:xlink="http://www.w3.org/1999/xlink" width="17.000000" height="18.000000" fill="none" customFrame="#000000">
	<rect id="variant=4" width="17.000000" height="18.000000" x="0.000000" y="0.000000" />
	<path id="Vector" d="M0.675732 9.66701L0.604682 9.66701C0.271342 9.66701 0 9.39642 0 9.06232C0 8.72822 0.271342 8.45763 0.604682 8.45763L0.675732 8.45763C0.968998 4.60192 4.04299 1.51809 7.89495 1.20888L7.89495 1.10457C7.89495 0.77047 8.16554 0.499878 8.49963 0.499878C8.83373 0.499878 9.10432 0.77047 9.10432 1.10457L9.10432 1.20434C12.9857 1.48401 16.0913 4.57997 16.387 8.45754L16.3953 8.45754C16.7294 8.45754 17 8.72814 17 9.06224C17 9.39634 16.7294 9.66693 16.3953 9.66693L16.387 9.66693C16.0922 13.5437 12.9857 16.6405 9.10432 16.9201C9.09147 17.2421 8.82541 17.4999 8.50039 17.4999C8.17311 17.4999 7.90629 17.2399 7.89646 16.9148C4.04469 16.6064 0.970585 13.5226 0.677241 9.6661L0.675732 9.66701ZM7.89495 4.8347L7.89495 7.85816C7.89495 8.3389 8.08618 8.80073 8.42632 9.14086C8.76645 9.481 9.22827 9.67224 9.709 9.67224L11.5253 9.67224C11.8594 9.67224 12.13 9.40164 12.13 9.06754C12.13 8.73345 11.8594 8.46285 11.5253 8.46285L9.709 8.46285C9.54876 8.46285 9.39456 8.39936 9.28119 8.28598C9.16781 8.1726 9.10432 8.01841 9.10432 7.85817L9.10432 4.83471C9.10432 4.50061 8.83374 4.23002 8.49964 4.23002C8.16555 4.23002 7.89495 4.50061 7.89495 4.8347Z" fill="rgb(19,169,225)" fill-rule="evenodd" />
</svg>
