<svg viewBox="0 0 36 35" xmlns="http://www.w3.org/2000/svg" xmlns:xlink="http://www.w3.org/1999/xlink" width="36.000000" height="35.000000" fill="none" customFrame="#000000">
	<rect id="variant=22" width="36.000000" height="35.000000" x="0.000000" y="0.000000" />
	<path id="Vector" d="M18.5974 0L17.4026 0C7.79141 0 0 7.79141 0 17.4026C0 27.0138 7.79141 34.8052 17.4026 34.8052L18.5974 34.8052C28.2086 34.8052 36 27.0138 36 17.4026C36 7.79141 28.2086 0 18.5974 0Z" fill="rgb(255,255,255)" fill-opacity="0.5" fill-rule="evenodd" />
	<path id="Vector" d="M14.9297 22.4199L15.856 21.6749C18.0061 19.9478 19.1429 17.6799 19.1429 15.1174C19.1429 14.9126 19.0329 14.7229 18.8549 14.6213L14.8549 12.3356C14.6797 12.2351 14.4632 12.2351 14.2879 12.3356L10.2879 14.6213C10.1099 14.7229 10 14.9126 10 15.1174C10 17.6799 11.1367 19.9478 13.2863 21.6749L14.2132 22.4199C14.3181 22.5041 14.4448 22.546 14.5714 22.546C14.6981 22.546 14.8248 22.5041 14.9297 22.4199ZM14.1673 18.3786L13.0244 17.2357C12.8012 17.0125 12.8012 16.6509 13.0244 16.4277C13.2476 16.2045 13.6092 16.2045 13.8324 16.4277L14.5093 17.1046L15.8285 15.3459C16.0183 15.0937 16.376 15.0418 16.6282 15.2318C16.881 15.421 16.9323 15.7792 16.7426 16.0317L15.0283 18.3175C14.929 18.45 14.7772 18.5329 14.612 18.5446C14.5981 18.5454 14.5847 18.546 14.5713 18.546C14.4201 18.546 14.275 18.4863 14.1673 18.3786Z" fill="rgb(255,255,255)" fill-rule="evenodd" />
	<path id="Vector" d="M25.6661 12.4967L22.907 9.73755C22.6927 9.52323 22.402 9.40283 22.0989 9.40283L15.1437 9.40283C14.8281 9.40283 14.5723 9.65866 14.5723 9.97426L14.5723 11.6885C14.7715 11.6885 14.9674 11.7407 15.1398 11.8395L16.8756 12.8314L23.4294 12.8314C23.5873 12.8314 23.7151 12.9592 23.7151 13.1171C23.7151 13.275 23.5873 13.4028 23.4294 13.4028L17.8756 13.4028L19.1392 14.1249C19.3174 14.2266 19.4615 14.3733 19.5612 14.5457L23.4294 14.5457C23.5873 14.5457 23.7151 14.6735 23.7151 14.8314C23.7151 14.9893 23.5873 15.1171 23.4294 15.1171L19.7151 15.1171C19.7151 15.5054 19.6844 15.8853 19.6363 16.26L23.4294 16.26C23.5873 16.26 23.7151 16.3878 23.7151 16.5457C23.7151 16.7036 23.5873 16.8314 23.4294 16.8314L19.538 16.8314C19.461 17.2204 19.3645 17.6031 19.2346 17.9743L23.4294 17.9743C23.5873 17.9743 23.7151 18.1021 23.7151 18.26C23.7151 18.4179 23.5873 18.5457 23.4294 18.5457L19 18.5457C18.8294 18.9379 18.6347 19.3207 18.4035 19.6885L23.4294 19.6885C23.5873 19.6885 23.7151 19.8163 23.7151 19.9743C23.7151 20.1322 23.5873 20.26 23.4294 20.26L18.004 20.26C17.7097 20.6562 17.3911 21.0415 17.0232 21.4028L23.4294 21.4028C23.5873 21.4028 23.7151 21.5306 23.7151 21.6885C23.7151 21.8465 23.5873 21.9743 23.4294 21.9743L16.3791 21.9743C16.3222 22.0218 16.2728 22.0733 16.2146 22.1202L15.2888 22.8649C15.0862 23.0276 14.8318 23.1171 14.5723 23.1171L14.5723 24.8314C14.5723 25.147 14.8281 25.4028 15.1437 25.4028L25.4294 25.4028C25.745 25.4028 26.0008 25.147 26.0008 24.8314L26.0008 13.3048C26.0008 13.0017 25.8804 12.711 25.6661 12.4967Z" fill="rgb(255,255,255)" fill-rule="evenodd" />
</svg>
