<?xml version="1.0" encoding="UTF-8"?>
<svg xmlns="http://www.w3.org/2000/svg" width="2731" height="687" viewBox="0 0 2731 687" fill="none">
  <g clip-path="url(#clip0_584_899)">
    <path d="M194.667 1.3333C102.933 12.6666 30.2667 75.2 7.46667 162.667C3.46667 177.733 0 202.933 0 216.667C0 239.067 6.53333 273.333 14.8 294.4C43.7333 367.733 107.867 418.933 185.333 430.667C190.8 431.467 203.6 432.533 213.6 433.2C223.733 433.733 232.4 434.533 232.8 435.067C233.6 435.867 195.867 675.467 193.733 683.333L193.067 686L195.733 683.333C199.333 679.6 301.2 523.6 341.6 460C366.533 420.667 373.067 409.2 387.333 379.467C414 324.267 422.933 298.4 429.6 257.2C433.333 234.133 433.6 200 430.267 181.333C426.4 159.867 420 140.533 410.533 121.467C398.8 97.7333 388 82.6666 369.333 64C337.067 31.6 296.667 10.8 251.333 3.3333C236.133 0.799964 207.733 -0.266702 194.667 1.3333ZM238 139.333C268.8 147.333 292.8 173.2 299.2 205.6C303.2 225.2 301.467 237.6 291.733 257.333C281.6 278.267 261.2 294.667 237.867 300.533C227.333 303.2 208.133 303.2 198 300.667C167.067 292.533 143.467 267.067 136.8 234.4C134 220.8 134.133 213.2 137.333 200.8C145.067 170.667 168.933 146.533 198 139.467C208.8 136.933 228.267 136.8 238 139.333Z" fill="#ED1C24"></path>
    <path d="M1947.33 125.733C1941.33 128.533 1939.2 131.467 1919.47 163.733C1894.53 204.4 1844.53 283.733 1840.53 288.933C1838.67 291.333 1836.67 293.333 1835.87 293.333C1835.2 293.333 1834.67 261.467 1834.67 209.333V125.333H1822H1809.33V312V498.667H1822H1834.67V404C1834.67 351.867 1835.2 309.333 1835.73 309.333C1838.53 309.333 1845.47 320.667 1893.87 404C1922.27 452.8 1946.93 494.267 1948.8 496.267C1950.67 498.133 1953.73 500 1955.73 500.4C1959.73 501.2 1977.33 498.8 1977.33 497.467C1977.33 496.4 1929.6 413.6 1890.4 346.933C1876.53 323.333 1864.8 301.867 1864.4 299.467C1863.6 294 1862.93 295.067 1886 258.667C1929.2 190.133 1968.27 126.533 1967.6 125.867C1965.87 124 1951.2 124 1947.33 125.733Z" fill="black"></path>
    <path d="M672.667 126.8C635.467 130.4 609.867 148.133 592.933 182C574.8 218.267 574.267 256.933 591.467 293.2C598.933 309.067 606.933 320.267 621.6 335.467C628 342.133 633.333 348 633.333 348.533C633.333 349.067 618.267 382.533 599.867 423.067C581.467 463.6 566.133 497.333 565.733 498.133C565.333 499.333 570.533 499.733 584.533 499.733C612.533 499.867 610.133 502.267 631.333 453.2C651.733 405.6 671.733 363.6 675.867 359.6C680.533 354.8 688.667 353.733 700.667 356.267L708.667 358L709.067 428.267L709.333 498.667H728.667H748V312.933V127.067L725.067 126.267C698.267 125.2 687.333 125.333 672.667 126.8ZM706.4 159.467L709.333 160.267V235.2C709.333 283.067 708.8 311.867 707.867 315.067C705.733 322.933 702 324.533 688.933 323.467C652.267 320.4 634.533 307.333 628.667 279.2C621.467 244.267 623.6 210 634 189.2C641.067 175.467 655.333 164.4 671.333 160.533C678.4 158.8 701.2 158.133 706.4 159.467Z" fill="#FF0000"></path>
    <path d="M2046.67 232.133C2034.13 235.333 2018.93 242.667 2012.67 248.533C2008.8 252.267 2008 253.867 2008 258.667C2008 261.867 2009.07 267.6 2010.27 271.467L2012.4 278.533L2020.13 271.467C2034.8 257.867 2049.2 252 2068.13 252C2086.27 252 2099.87 258.933 2104.53 270.8C2107.2 277.467 2110 295.467 2112.13 320.533C2113.33 336 2113.33 339.2 2111.87 340.133C2110.8 340.8 2105.87 341.333 2100.67 341.333C2086.67 341.333 2060.53 343.867 2050.67 346.133C2025.07 351.867 2009.07 367.467 1999.33 396.133C1991.73 418.4 1992 439.467 2000.27 462.133C2009.87 488.933 2026.4 503.2 2049.73 504.933C2071.47 506.533 2088.27 498.667 2104 479.2C2107.87 474.533 2111.33 470.667 2111.87 470.667C2112.4 470.667 2113.87 475.2 2115.2 480.667C2116.53 486.133 2118.93 492.533 2120.53 494.933C2123.33 499.067 2123.87 499.333 2131.07 499.2C2135.33 499.067 2138.93 498.8 2139.33 498.533C2139.6 498.133 2139.2 490.8 2138.53 482C2137.73 473.2 2136.67 424.533 2136.13 374C2134.93 274.133 2135.07 275.333 2127.2 259.867C2115.2 236.133 2079.07 223.733 2046.67 232.133ZM2112.27 386.933C2113.33 429.6 2111.2 441.333 2099.2 458.933C2084.4 480.667 2067.07 489.2 2049.6 483.467C2035.6 478.8 2026.67 466.933 2021.2 445.733C2013.2 414.4 2025.07 379.733 2047.6 368.267C2056.27 363.733 2079.73 360.133 2107.47 358.8L2111.6 358.667L2112.27 386.933Z" fill="black"></path>
    <path d="M2263.33 231.6C2247.6 237.2 2236.67 246.4 2224.4 263.733C2216.93 274.533 2216 274.133 2216 260.667C2216 256.933 2215.6 250 2215.07 244.933L2214.27 236H2204.53H2194.67V408.667V581.467L2206.4 581.067L2218 580.667L2218.67 535.2L2219.33 489.733L2231.33 494.267C2263.2 506.533 2280.93 506.8 2299.87 495.6C2332.8 475.867 2353.33 408.533 2346.67 341.2C2341.07 284.533 2323.73 246.133 2298.13 234.133C2287.73 229.2 2273.07 228.133 2263.33 231.6ZM2280.67 252.133C2307.07 258.8 2324.67 310.933 2322.27 374.667C2320.93 407.333 2315.47 435.867 2306.67 454C2300.13 467.733 2292.67 476.133 2282.93 480.933C2276.4 484.133 2273.87 484.667 2264.67 484.533C2239.87 484.133 2222 469.333 2218.93 446.533C2218.27 441.867 2217.87 408.267 2218.13 372C2218.53 309.6 2218.67 305.6 2221.33 298.133C2222.8 293.733 2225.07 288.667 2226.13 286.8C2235.87 271.467 2251.73 257.067 2263.2 253.067C2271.33 250.267 2273.07 250.267 2280.67 252.133Z" fill="black"></path>
    <path d="M1250.67 232C1227.73 234.934 1210.27 248.267 1200.53 270.134C1176 325.467 1172.13 386.134 1189.6 441.334C1195.2 458.934 1201.47 469.734 1212.53 480.667C1228.67 496.667 1248.67 504.534 1272.67 504.4C1293.6 504.4 1314.27 497.334 1325.6 486.534C1329.87 482.534 1330.67 480.8 1330.67 476.4C1330.67 471.467 1326.13 455.2 1324 452.934C1323.47 452.267 1318.93 453.867 1313.87 456.4C1297.07 464.8 1285.6 468.267 1274.67 468.4C1262.13 468.534 1254.8 465.467 1244.67 455.867C1229.87 441.867 1225.2 428.8 1224.27 398.267L1223.73 377.334H1277.73H1331.87L1332.8 372.4C1334.13 364.934 1332.4 322.4 1330 308.4C1326.4 286.267 1319.33 267.467 1309.73 254.267C1297.73 238 1274.13 229.067 1250.67 232ZM1267.6 266.8C1275.73 269.867 1281.47 277.734 1284 288.8C1285.73 296.134 1292 336.8 1292 340.267C1292 342.534 1289.47 342.667 1256.67 342.667C1237.2 342.667 1221.33 342.134 1221.33 341.467C1221.33 338.934 1230.93 297.2 1233.47 288.667C1234.93 283.467 1237.73 277.334 1239.6 274.8C1245.6 266.934 1258.27 263.2 1267.6 266.8Z" fill="black"></path>
    <path d="M1609.6 233.2C1566.93 244 1541.2 283.866 1536 346.8C1533.6 375.466 1537.87 410.8 1546.8 438C1555.73 465.066 1564.8 478.8 1580.93 489.866C1604.8 506.133 1637.07 508.533 1663.33 496C1681.2 487.466 1682.67 484.133 1676.93 467.2C1674.8 460.666 1672.8 455.2 1672.67 454.933C1672.4 454.666 1667.6 456.933 1661.73 459.733C1635.2 473.066 1616.4 472.533 1602 457.866C1580.27 435.733 1572 364.666 1585.2 313.2C1590.53 292.533 1601.73 275.2 1613.73 269.466C1626.93 263.2 1638.93 264.8 1660.13 275.333C1666.8 278.8 1672.53 281.333 1672.8 280.933C1673.07 280.666 1674.27 275.066 1675.33 268.533C1676.53 262 1677.6 256 1678 255.066C1679.33 251.2 1675.73 243.866 1670.93 240.8C1657.47 232 1628.4 228.4 1609.6 233.2Z" fill="black"></path>
    <path d="M1482.93 236.933C1477.73 239.467 1474.53 243.733 1468.4 256.4C1458.4 277.2 1422.27 345.2 1419.2 348.8L1416.13 352.667L1416 294.267V236H1396H1376V367.333V498.667H1396H1416L1416.27 436.933L1416.67 375.333L1420.13 378.933C1422 380.933 1428.27 391.467 1434 402.267C1482.93 494.933 1483.6 496.133 1488.67 498.4C1490.8 499.333 1499.6 500 1511.47 500H1530.8L1521.2 481.6C1494 429.867 1484.27 411.733 1475.33 396.4C1462.93 375.333 1460.93 369.467 1461.6 356.8C1462.13 346.133 1463.07 343.867 1479.47 314.667C1484.67 305.467 1496.27 283.733 1505.2 266.267L1521.47 234.667H1504.4C1491.47 234.667 1486.27 235.2 1482.93 236.933Z" fill="black"></path>
    <path d="M2710.4 235.6C2708.13 236.133 2708 243.6 2708 367.466V498.667H2719.33H2730.67V367.466V236.266L2727.73 235.466C2724.27 234.666 2713.87 234.666 2710.4 235.6Z" fill="black"></path>
    <path d="M802.933 367.6L803.333 499.333L823.067 499.733L842.667 500.133V441.333V382.667H874H905.333V440.667V498.667H924H942.667V367.333V236H923.333H904V290.667V345.333H873.333H842.667V290.667V236H822.667H802.667L802.933 367.6Z" fill="black"></path>
    <path d="M1010.67 273.6C1010.67 340.666 1006.67 386.266 997.333 425.333C993.467 441.2 988.133 457.333 985.067 461.6C982.533 465.333 974.667 468.4 971.2 467.066C969.6 466.533 969.333 472.533 969.333 508.533V550.667H987.333H1005.33V526V501.333H1062H1118.67V526V550.667H1136.67H1154.67L1154.4 508.933L1154 467.333L1144 466L1134 464.666L1133.6 350.266L1133.33 236H1072H1010.67V273.6ZM1092.67 367.333V464.666L1059.07 465.066C1034.8 465.333 1025.33 464.933 1025.33 463.866C1025.33 463.066 1026.8 457.466 1028.67 451.466C1040.4 413.066 1048 349.866 1048 291.333V269.333L1070.4 269.6L1092.67 270V367.333Z" fill="black"></path>
    <path d="M2366.67 246V256H2396.67H2426.67V377.333V498.667H2439.33H2452V376.666V254.666H2482H2512V245.333V236H2439.33H2366.67V246Z" fill="black"></path>
    <path d="M2552 368.133V500.267L2582.4 499.6C2604.27 499.2 2615.07 498.4 2621.2 496.8C2643.33 491.067 2660.27 478 2669.33 459.467C2675.87 446.4 2678.67 432.533 2678.67 414.267C2678.53 380.4 2666 356.4 2641.73 343.6C2628 336.533 2619.33 334.533 2596.4 333.733L2576 332.933V284.533V236H2564H2552V368.133ZM2624.13 357.733C2638.13 364.533 2649.73 380.667 2654.13 399.6C2659.33 421.467 2650.53 452.933 2635.6 466.933C2626 475.867 2611.73 480 2590.4 480H2577.33V417.6C2577.33 383.2 2577.73 354.667 2578.4 354.133C2578.93 353.467 2587.73 353.333 2598 353.6C2614.93 354.133 2617.33 354.4 2624.13 357.733Z" fill="black"></path>
  </g>
  <defs>
    <clipPath id="clip0_584_899">
      <rect width="2730.67" height="686.667" fill="white"></rect>
    </clipPath>
  </defs>
</svg>
